<mxfile host="app.diagrams.net" modified="2020-10-11T10:49:33.491Z" agent="5.0 (Windows NT 10.0; Win64; x64) AppleWebKit/537.36 (KHTML, like Gecko) Chrome/86.0.4240.75 Safari/537.36" etag="QImr5Ju0sMX0XbYm9gTG" version="13.7.9" type="github">
  <diagram id="vk8aCT1LOJWwP5bcW4PG" name="Page-1">
    <mxGraphModel dx="789" dy="440" grid="1" gridSize="10" guides="1" tooltips="1" connect="1" arrows="1" fold="1" page="1" pageScale="1" pageWidth="827" pageHeight="1169" math="0" shadow="0">
      <root>
        <mxCell id="0" />
        <mxCell id="1" parent="0" />
        <mxCell id="GMMr-QSwXNKDu-xxYZzZ-1" value="Table" style="shape=table;startSize=30;container=1;collapsible=1;childLayout=tableLayout;fixedRows=1;rowLines=0;fontStyle=1;align=center;resizeLast=1;" vertex="1" parent="1">
          <mxGeometry x="50" y="50" width="180" height="160" as="geometry" />
        </mxCell>
        <mxCell id="GMMr-QSwXNKDu-xxYZzZ-2" value="" style="shape=partialRectangle;collapsible=0;dropTarget=0;pointerEvents=0;fillColor=none;top=0;left=0;bottom=1;right=0;points=[[0,0.5],[1,0.5]];portConstraint=eastwest;" vertex="1" parent="GMMr-QSwXNKDu-xxYZzZ-1">
          <mxGeometry y="30" width="180" height="30" as="geometry" />
        </mxCell>
        <mxCell id="GMMr-QSwXNKDu-xxYZzZ-3" value="PK" style="shape=partialRectangle;connectable=0;fillColor=none;top=0;left=0;bottom=0;right=0;fontStyle=1;overflow=hidden;" vertex="1" parent="GMMr-QSwXNKDu-xxYZzZ-2">
          <mxGeometry width="30" height="30" as="geometry" />
        </mxCell>
        <mxCell id="GMMr-QSwXNKDu-xxYZzZ-4" value="UniqueID" style="shape=partialRectangle;connectable=0;fillColor=none;top=0;left=0;bottom=0;right=0;align=left;spacingLeft=6;fontStyle=5;overflow=hidden;" vertex="1" parent="GMMr-QSwXNKDu-xxYZzZ-2">
          <mxGeometry x="30" width="150" height="30" as="geometry" />
        </mxCell>
        <mxCell id="GMMr-QSwXNKDu-xxYZzZ-5" value="" style="shape=partialRectangle;collapsible=0;dropTarget=0;pointerEvents=0;fillColor=none;top=0;left=0;bottom=0;right=0;points=[[0,0.5],[1,0.5]];portConstraint=eastwest;" vertex="1" parent="GMMr-QSwXNKDu-xxYZzZ-1">
          <mxGeometry y="60" width="180" height="30" as="geometry" />
        </mxCell>
        <mxCell id="GMMr-QSwXNKDu-xxYZzZ-6" value="" style="shape=partialRectangle;connectable=0;fillColor=none;top=0;left=0;bottom=0;right=0;editable=1;overflow=hidden;" vertex="1" parent="GMMr-QSwXNKDu-xxYZzZ-5">
          <mxGeometry width="30" height="30" as="geometry" />
        </mxCell>
        <mxCell id="GMMr-QSwXNKDu-xxYZzZ-7" value="Row 1" style="shape=partialRectangle;connectable=0;fillColor=none;top=0;left=0;bottom=0;right=0;align=left;spacingLeft=6;overflow=hidden;" vertex="1" parent="GMMr-QSwXNKDu-xxYZzZ-5">
          <mxGeometry x="30" width="150" height="30" as="geometry" />
        </mxCell>
        <mxCell id="GMMr-QSwXNKDu-xxYZzZ-8" value="" style="shape=partialRectangle;collapsible=0;dropTarget=0;pointerEvents=0;fillColor=none;top=0;left=0;bottom=0;right=0;points=[[0,0.5],[1,0.5]];portConstraint=eastwest;" vertex="1" parent="GMMr-QSwXNKDu-xxYZzZ-1">
          <mxGeometry y="90" width="180" height="30" as="geometry" />
        </mxCell>
        <mxCell id="GMMr-QSwXNKDu-xxYZzZ-9" value="" style="shape=partialRectangle;connectable=0;fillColor=none;top=0;left=0;bottom=0;right=0;editable=1;overflow=hidden;" vertex="1" parent="GMMr-QSwXNKDu-xxYZzZ-8">
          <mxGeometry width="30" height="30" as="geometry" />
        </mxCell>
        <mxCell id="GMMr-QSwXNKDu-xxYZzZ-10" value="Row 2" style="shape=partialRectangle;connectable=0;fillColor=none;top=0;left=0;bottom=0;right=0;align=left;spacingLeft=6;overflow=hidden;" vertex="1" parent="GMMr-QSwXNKDu-xxYZzZ-8">
          <mxGeometry x="30" width="150" height="30" as="geometry" />
        </mxCell>
        <mxCell id="GMMr-QSwXNKDu-xxYZzZ-11" value="" style="shape=partialRectangle;collapsible=0;dropTarget=0;pointerEvents=0;fillColor=none;top=0;left=0;bottom=0;right=0;points=[[0,0.5],[1,0.5]];portConstraint=eastwest;" vertex="1" parent="GMMr-QSwXNKDu-xxYZzZ-1">
          <mxGeometry y="120" width="180" height="30" as="geometry" />
        </mxCell>
        <mxCell id="GMMr-QSwXNKDu-xxYZzZ-12" value="" style="shape=partialRectangle;connectable=0;fillColor=none;top=0;left=0;bottom=0;right=0;editable=1;overflow=hidden;" vertex="1" parent="GMMr-QSwXNKDu-xxYZzZ-11">
          <mxGeometry width="30" height="30" as="geometry" />
        </mxCell>
        <mxCell id="GMMr-QSwXNKDu-xxYZzZ-13" value="Row 3" style="shape=partialRectangle;connectable=0;fillColor=none;top=0;left=0;bottom=0;right=0;align=left;spacingLeft=6;overflow=hidden;" vertex="1" parent="GMMr-QSwXNKDu-xxYZzZ-11">
          <mxGeometry x="30" width="150" height="30" as="geometry" />
        </mxCell>
        <mxCell id="GMMr-QSwXNKDu-xxYZzZ-14" value="Table" style="shape=table;startSize=30;container=1;collapsible=1;childLayout=tableLayout;fixedRows=1;rowLines=0;fontStyle=1;align=center;resizeLast=1;" vertex="1" parent="1">
          <mxGeometry x="280" y="50" width="180" height="160" as="geometry" />
        </mxCell>
        <mxCell id="GMMr-QSwXNKDu-xxYZzZ-15" value="" style="shape=partialRectangle;collapsible=0;dropTarget=0;pointerEvents=0;fillColor=none;top=0;left=0;bottom=1;right=0;points=[[0,0.5],[1,0.5]];portConstraint=eastwest;" vertex="1" parent="GMMr-QSwXNKDu-xxYZzZ-14">
          <mxGeometry y="30" width="180" height="30" as="geometry" />
        </mxCell>
        <mxCell id="GMMr-QSwXNKDu-xxYZzZ-16" value="PK" style="shape=partialRectangle;connectable=0;fillColor=none;top=0;left=0;bottom=0;right=0;fontStyle=1;overflow=hidden;" vertex="1" parent="GMMr-QSwXNKDu-xxYZzZ-15">
          <mxGeometry width="30" height="30" as="geometry" />
        </mxCell>
        <mxCell id="GMMr-QSwXNKDu-xxYZzZ-17" value="UniqueID" style="shape=partialRectangle;connectable=0;fillColor=none;top=0;left=0;bottom=0;right=0;align=left;spacingLeft=6;fontStyle=5;overflow=hidden;" vertex="1" parent="GMMr-QSwXNKDu-xxYZzZ-15">
          <mxGeometry x="30" width="150" height="30" as="geometry" />
        </mxCell>
        <mxCell id="GMMr-QSwXNKDu-xxYZzZ-18" value="" style="shape=partialRectangle;collapsible=0;dropTarget=0;pointerEvents=0;fillColor=none;top=0;left=0;bottom=0;right=0;points=[[0,0.5],[1,0.5]];portConstraint=eastwest;" vertex="1" parent="GMMr-QSwXNKDu-xxYZzZ-14">
          <mxGeometry y="60" width="180" height="30" as="geometry" />
        </mxCell>
        <mxCell id="GMMr-QSwXNKDu-xxYZzZ-19" value="" style="shape=partialRectangle;connectable=0;fillColor=none;top=0;left=0;bottom=0;right=0;editable=1;overflow=hidden;" vertex="1" parent="GMMr-QSwXNKDu-xxYZzZ-18">
          <mxGeometry width="30" height="30" as="geometry" />
        </mxCell>
        <mxCell id="GMMr-QSwXNKDu-xxYZzZ-20" value="Row 122222222" style="shape=partialRectangle;connectable=0;fillColor=none;top=0;left=0;bottom=0;right=0;align=left;spacingLeft=6;overflow=hidden;" vertex="1" parent="GMMr-QSwXNKDu-xxYZzZ-18">
          <mxGeometry x="30" width="150" height="30" as="geometry" />
        </mxCell>
        <mxCell id="GMMr-QSwXNKDu-xxYZzZ-21" value="" style="shape=partialRectangle;collapsible=0;dropTarget=0;pointerEvents=0;fillColor=none;top=0;left=0;bottom=0;right=0;points=[[0,0.5],[1,0.5]];portConstraint=eastwest;" vertex="1" parent="GMMr-QSwXNKDu-xxYZzZ-14">
          <mxGeometry y="90" width="180" height="30" as="geometry" />
        </mxCell>
        <mxCell id="GMMr-QSwXNKDu-xxYZzZ-22" value="" style="shape=partialRectangle;connectable=0;fillColor=none;top=0;left=0;bottom=0;right=0;editable=1;overflow=hidden;" vertex="1" parent="GMMr-QSwXNKDu-xxYZzZ-21">
          <mxGeometry width="30" height="30" as="geometry" />
        </mxCell>
        <mxCell id="GMMr-QSwXNKDu-xxYZzZ-23" value="Row 2" style="shape=partialRectangle;connectable=0;fillColor=none;top=0;left=0;bottom=0;right=0;align=left;spacingLeft=6;overflow=hidden;" vertex="1" parent="GMMr-QSwXNKDu-xxYZzZ-21">
          <mxGeometry x="30" width="150" height="30" as="geometry" />
        </mxCell>
        <mxCell id="GMMr-QSwXNKDu-xxYZzZ-24" value="" style="shape=partialRectangle;collapsible=0;dropTarget=0;pointerEvents=0;fillColor=none;top=0;left=0;bottom=0;right=0;points=[[0,0.5],[1,0.5]];portConstraint=eastwest;" vertex="1" parent="GMMr-QSwXNKDu-xxYZzZ-14">
          <mxGeometry y="120" width="180" height="30" as="geometry" />
        </mxCell>
        <mxCell id="GMMr-QSwXNKDu-xxYZzZ-25" value="" style="shape=partialRectangle;connectable=0;fillColor=none;top=0;left=0;bottom=0;right=0;editable=1;overflow=hidden;" vertex="1" parent="GMMr-QSwXNKDu-xxYZzZ-24">
          <mxGeometry width="30" height="30" as="geometry" />
        </mxCell>
        <mxCell id="GMMr-QSwXNKDu-xxYZzZ-26" value="Row 3" style="shape=partialRectangle;connectable=0;fillColor=none;top=0;left=0;bottom=0;right=0;align=left;spacingLeft=6;overflow=hidden;" vertex="1" parent="GMMr-QSwXNKDu-xxYZzZ-24">
          <mxGeometry x="30" width="150" height="30" as="geometry" />
        </mxCell>
      </root>
    </mxGraphModel>
  </diagram>
</mxfile>
